<svg width="24" height="24" viewBox="0 0 24 24" fill="none" xmlns="http://www.w3.org/2000/svg">
<path d="M24.0045 12.0022C24.0045 18.6302 18.6302 23.9998 12.0022 23.9998C5.37428 23.9998 0 18.6302 0 12.0022C0 5.37428 5.37428 0 12.0022 0C18.6302 0 24.0045 5.37428 24.0045 12.0022Z" fill="#F9B938"/>
<path d="M24.003 12.0007C24.003 18.6282 18.6312 24.0001 12.0037 24.0001C8.42246 24.0001 5.20792 22.4338 3.01172 19.9442C5.12591 21.8082 7.90033 22.9344 10.938 22.9344C17.5654 22.9344 22.9373 17.5624 22.9373 10.935C22.9373 7.89738 21.8069 5.12302 19.9342 3.00439C22.4282 5.19201 24.003 8.41082 24.003 12.0007Z" fill="#E5A320"/>
<g opacity="0.3">
<path d="M2.56523 7.84868C2.40553 7.76778 2.3419 7.57311 2.42281 7.41383C3.51161 5.2653 5.30325 3.50146 7.4678 2.44763C7.62876 2.36842 7.82259 2.43668 7.90012 2.5968C7.9785 2.75734 7.91192 2.95116 7.75096 3.02912C5.71282 4.02185 4.02568 5.68287 3.00007 7.70626C2.91987 7.86488 2.72578 7.92968 2.56523 7.84868Z" fill="white"/>
</g>
<g opacity="0.3">
<path d="M9.50979 2.02221C9.46849 1.84819 9.57636 1.67375 9.74996 1.63287C10.3121 1.50014 10.891 1.41081 11.4708 1.36741C11.6486 1.36109 11.8045 1.48792 11.8176 1.66616C11.8307 1.8444 11.6971 1.99946 11.5189 2.01294C10.9728 2.05382 10.4279 2.13767 9.89913 2.26239C9.72125 2.3039 9.54999 2.19319 9.50979 2.02221Z" fill="white"/>
</g>
<path d="M20.8685 12.0032C20.8685 13.4615 20.516 14.8358 19.8869 16.0498C18.4165 18.9064 15.4357 20.8656 12.0022 20.8656C8.57259 20.8656 5.58777 18.9064 4.11732 16.0498C3.48837 14.8358 3.13574 13.4615 3.13574 12.0032C3.13574 7.11129 7.11422 3.13281 12.0022 3.13281C16.8941 3.13281 20.8685 7.11129 20.8685 12.0032Z" fill="#F7F363"/>
<path d="M18.745 6.25384C17.1986 4.92772 15.1953 4.13043 12.9998 4.13043C8.11183 4.13043 4.13336 8.1089 4.13336 13.0008C4.13336 14.4591 4.48598 15.8334 5.11498 17.0474C5.42344 17.6524 5.80007 18.2133 6.23677 18.7261C5.36739 17.9809 4.6462 17.0714 4.11731 16.0498C3.48837 14.8358 3.13574 13.4615 3.13574 12.0032C3.13574 7.11129 7.11422 3.13281 12.0022 3.13281C14.7026 3.13281 17.1224 4.34675 18.745 6.25384Z" fill="#EDD318"/>
<path d="M13.0158 7.66294L13.9987 9.65467L16.1967 9.97406C17.1241 10.1088 17.4943 11.2484 16.8233 11.9025L15.2328 13.4528L15.6083 15.6419C15.7667 16.5655 14.7973 17.2698 13.9679 16.8338L12.0019 15.8002L10.036 16.8338C9.20656 17.2698 8.23717 16.5655 8.39557 15.6419L8.77104 13.4528L7.18055 11.9025C6.50953 11.2484 6.87981 10.1088 7.80713 9.97406L10.0051 9.65467L10.9881 7.66294C11.4028 6.82264 12.6011 6.82264 13.0158 7.66294Z" fill="#F9B938"/>
<g opacity="0.4">
<path d="M12.25 8.93686C12.2617 9.0943 12.1392 9.23424 11.9817 9.24591C11.9351 9.25175 11.8768 9.26342 11.8243 9.31004C11.7952 9.33339 11.7777 9.3625 11.7602 9.39168L11.1712 10.587C11.0488 10.8377 10.8097 11.0127 10.5299 11.0535L9.21208 11.2459C9.10713 11.2575 9.02549 11.3276 8.99635 11.4267C8.96136 11.5257 8.99051 11.625 9.06048 11.7007C9.22812 11.8642 10.0582 12.6738 10.0051 12.622C10.1217 12.7328 10.1217 12.9194 10.0109 13.036C9.90117 13.1457 9.7247 13.1568 9.59694 13.0418L8.69897 12.1555C8.68733 12.1497 8.66982 12.138 8.65815 12.1205C8.4191 11.8932 8.33745 11.5549 8.44241 11.2459C8.54156 10.9369 8.80392 10.7095 9.13044 10.6628L10.4424 10.4762C10.5299 10.4645 10.6057 10.4062 10.6465 10.3246L11.2354 9.13516C11.2762 9.04761 11.3345 8.97771 11.3987 8.91351C11.4103 8.89607 11.422 8.8844 11.4395 8.86689C11.5794 8.7503 11.7485 8.68033 11.9409 8.66866C12.0925 8.65115 12.2383 8.77358 12.25 8.93686Z" fill="white"/>
</g>
<path d="M16.8215 11.905L15.2297 13.4501C15.2684 13.6743 15.0893 12.638 15.6087 15.6425C15.7653 16.5648 14.7972 17.2669 13.9692 16.8315C12.8974 16.2679 11.9453 15.7714 11.9994 15.8L10.0344 16.832C9.20635 17.2694 8.23844 16.5639 8.39589 15.6425L8.44835 15.3218C8.66992 15.9224 9.39294 16.2606 10.0344 15.9282L11.6895 15.054C11.8795 14.9537 12.1097 14.9691 12.2846 15.0939L13.2351 15.7722C13.7495 16.1393 14.5117 15.8188 14.5355 15.1873C14.537 15.149 14.5353 15.1139 14.5299 15.0828L14.2069 13.1896C14.1755 13.0059 14.2363 12.8184 14.3696 12.6881L15.7428 11.3452C16.1568 10.9428 16.1743 10.354 15.9119 9.93408L16.1976 9.97494C17.1247 10.109 17.492 11.246 16.8215 11.905Z" fill="#E5A320"/>
</svg>
