<svg width="56" height="44" viewBox="0 0 56 44" fill="none" xmlns="http://www.w3.org/2000/svg">
<path fill-rule="evenodd" clip-rule="evenodd" d="M27.8903 15.2696C26.5078 12.8746 30.8307 7.79309 37.5454 3.91539C44.257 0.0408068 50.8213 -1.16299 52.2037 1.23199C52.9686 2.55801 53.7334 3.88402 54.5015 5.21317C55.884 7.60502 51.561 12.6865 44.8463 16.5642C38.1316 20.4388 31.5704 21.6426 30.188 19.2507C29.4232 17.9216 28.6552 16.5956 27.8903 15.2696Z" fill="#FE9923"/>
<path fill-rule="evenodd" clip-rule="evenodd" d="M37.5454 3.91539C44.257 0.0408068 50.8213 -1.16299 52.2037 1.23199C53.5862 3.62384 49.2633 8.70534 42.5486 12.583C35.8339 16.4608 29.2728 17.6614 27.8903 15.2696C26.5078 12.8746 30.8307 7.79309 37.5454 3.91539Z" fill="#FECD3D"/>
<path fill-rule="evenodd" clip-rule="evenodd" d="M38.7145 5.94053C44.0562 2.859 48.981 1.392 49.7177 2.66467C50.4543 3.94057 46.7208 7.47349 41.379 10.558C36.0374 13.6427 31.1094 15.1098 30.3759 13.8339C29.6393 12.5581 33.3728 9.02519 38.7145 5.94053Z" fill="#FEA832"/>
<path d="M51.7025 7.95303L52.9251 10.0721C53.2166 9.71469 53.4799 9.36365 53.7056 9.01875L52.7401 7.35107L51.7025 7.95303ZM50.6554 12.4169C50.3608 12.6803 50.0504 12.9467 49.7307 13.2101L48.5645 11.1881L49.6021 10.5926L50.6554 12.4169ZM47.1946 15.0941C46.8686 15.3167 46.5332 15.5361 46.1915 15.7524L45.0787 13.8246L46.1163 13.229L47.1946 15.0941ZM43.4736 17.3198C43.1131 17.511 42.7558 17.6897 42.4016 17.8652L41.32 15.9969L42.3607 15.395L43.4736 17.3198ZM39.5018 19.116C39.1101 19.2633 38.7275 19.3982 38.3514 19.5204L37.2949 17.696L38.3357 17.0973L39.5018 19.116ZM35.1853 20.3134C34.7307 20.3887 34.2949 20.4389 33.8842 20.4639L32.9219 18.7962L33.9626 18.1944L35.1853 20.3134Z" fill="#C85929"/>
<path fill-rule="evenodd" clip-rule="evenodd" d="M26.8687 25.6616C28.2511 23.2698 23.9282 18.1851 17.2135 14.3105C10.502 10.4328 3.93762 9.23217 2.55523 11.624C1.79032 12.95 1.02551 14.2792 0.257473 15.6052C-1.12502 17.9971 3.19793 23.0817 9.91262 26.9563C16.6273 30.834 23.1885 32.0346 24.5709 29.6428C25.3388 28.3169 26.1036 26.9876 26.8687 25.6616Z" fill="#FE9923"/>
<path fill-rule="evenodd" clip-rule="evenodd" d="M17.2135 14.3106C10.502 10.4328 3.93763 9.23217 2.55524 11.624C1.17598 14.019 5.49882 19.1005 12.2104 22.9751C18.9251 26.8528 25.4894 28.0535 26.8687 25.6616C28.2512 23.2698 23.9282 18.1851 17.2135 14.3106Z" fill="#FECD3D"/>
<path fill-rule="evenodd" clip-rule="evenodd" d="M16.0441 16.3353C10.7056 13.2507 5.77764 11.7837 5.04096 13.0595C4.30429 14.3322 8.03778 17.8683 13.3795 20.9497C18.7211 24.0344 23.6491 25.5014 24.3857 24.2256C25.1193 22.9529 21.3858 19.42 16.0441 16.3353Z" fill="#FEA832"/>
<path d="M3.05661 18.3446L1.83406 20.4637C1.54251 20.1063 1.28233 19.7553 1.05664 19.4135L2.01901 17.7427L3.05661 18.3446ZM4.10358 22.8085C4.39825 23.0719 4.70855 23.3384 5.02833 23.6017L6.1944 21.5829L5.15681 20.9842L4.10358 22.8085ZM7.56439 25.4888C7.89043 25.7083 8.22584 25.9277 8.57063 26.144L9.68346 24.2162L8.64273 23.6206L7.56439 25.4888ZM11.2854 27.7145C11.6459 27.9026 12.0033 28.0844 12.3607 28.2568L13.439 26.3885L12.3983 25.7866L11.2854 27.7145ZM15.2603 29.5076C15.6491 29.6549 16.0315 29.7898 16.4108 29.912L17.4641 28.0876L16.4234 27.492L15.2603 29.5076ZM19.5738 30.7082C20.0315 30.7803 20.464 30.8304 20.8747 30.8555L21.837 29.1878L20.7994 28.586L19.5738 30.7082Z" fill="#C85929"/>
<path fill-rule="evenodd" clip-rule="evenodd" d="M25.9001 38.7868C24.5208 36.395 28.8406 31.3135 35.5553 27.4358C42.27 23.5612 48.8312 22.3574 50.2136 24.7493C50.9816 26.0784 51.7465 27.4044 52.5113 28.7304C53.8938 31.1254 49.5709 36.2069 42.8593 40.0846C36.1446 43.9592 29.5803 45.163 28.1979 42.768C27.4331 41.442 26.6682 40.116 25.9001 38.7868Z" fill="#FE9923"/>
<path fill-rule="evenodd" clip-rule="evenodd" d="M35.5553 27.4358C42.27 23.5612 48.8312 22.3574 50.2136 24.7493C51.5961 27.1442 47.2731 32.2257 40.5584 36.1034C33.8469 39.978 27.2826 41.1818 25.9001 38.7868C24.5208 36.3951 28.8406 31.3136 35.5553 27.4358Z" fill="#FECD3D"/>
<path fill-rule="evenodd" clip-rule="evenodd" d="M36.7243 29.461C42.066 26.3764 46.9939 24.9124 47.7274 26.1852C48.4641 27.4609 44.7306 30.9939 39.3888 34.0785C34.0471 37.1601 29.1223 38.6271 28.3857 37.3544C27.6491 36.0785 31.3826 32.5456 36.7243 29.461Z" fill="#FEA832"/>
<path d="M49.7121 31.4734L50.9378 33.5926C51.2293 33.2352 51.4895 32.881 51.7152 32.5393L50.7528 30.8716L49.7121 31.4734ZM48.6681 35.9342C48.3703 36.2007 48.0632 36.464 47.7403 36.7274L46.5741 34.7085L47.6148 34.113L48.6681 35.9342ZM45.2073 38.6145C44.8782 38.8371 44.5428 39.0565 44.2011 39.2728L43.0883 37.345L44.129 36.7462L45.2073 38.6145ZM41.4832 40.8401C41.1258 41.0282 40.7654 41.21 40.4111 41.3825L39.3327 39.5141L40.3703 38.9123L41.4832 40.8401ZM37.5114 42.6364C37.1228 42.7806 36.7371 42.9153 36.361 43.0408L35.3076 41.2132L36.3452 40.6176L37.5114 42.6364ZM33.1979 43.8339C32.7402 43.9092 32.3045 43.9562 31.8969 43.9813L30.9346 42.3136L31.9722 41.7118L33.1979 43.8339Z" fill="#C85929"/>
<path d="M23.2075 5.61768V7.40143H24.9912V8.95002H23.2075V10.7368H21.659V8.95002H19.8721V7.40143H21.659V5.61768H23.2075Z" fill="#FEA832"/>
<path d="M17.6897 34.229V36.0128H19.4764V37.5612H17.6897V39.3481H16.1411V37.5612H14.3574V36.0128H16.1411V34.229H17.6897Z" fill="#FEA832"/>
<path d="M53.2884 16.7334V18.517H55.0752V20.0657H53.2884V21.8525H51.7397V20.0657H49.9561V18.517H51.7397V16.7334H53.2884Z" fill="#FEA832"/>
</svg>
